<svg width="34" height="34" viewBox="0 0 34 34" fill="none" xmlns="http://www.w3.org/2000/svg">
<path fill-rule="evenodd" clip-rule="evenodd" d="M25.5277 10.6163C25.8387 10.5651 26.1564 10.6651 26.3829 10.8852C29.0159 13.4454 30.4659 16.872 30.4659 20.5336C30.4659 27.9589 24.4253 33.9999 17.0004 33.9999C10.8585 33.9999 5.50055 29.8417 3.97088 23.8879C3.68101 22.7583 3.53406 21.6299 3.53406 20.5336C3.53406 18.3818 4.03675 16.3131 5.0282 14.3854C6.00391 12.4903 7.43861 10.8308 9.17739 9.58585C9.18749 9.57861 9.19778 9.57157 9.20814 9.56467C9.2722 9.52243 9.34061 9.47237 9.41307 9.41935L9.42057 9.41386C9.42792 9.40848 9.43527 9.40311 9.44262 9.39773C9.4716 9.37651 9.50062 9.35527 9.52981 9.33424C12.2945 7.35586 14.0309 4.28895 14.2964 0.917908C14.3226 0.585213 14.5136 0.287779 14.8053 0.125549C15.097 -0.0366153 15.4503 -0.0419942 15.7468 0.111205C19.1525 1.87144 21.6527 5.00853 22.6061 8.71805C22.8961 9.84742 23.0431 10.9759 23.0431 12.0724C23.0431 12.6439 23.0058 13.2139 22.9318 13.7805C23.6745 12.9961 24.3057 12.1089 24.8027 11.1434C24.9472 10.8628 25.2162 10.6672 25.5277 10.6163ZM16 24C18.2091 24 20 22.2091 20 20C20 17.7909 18.2091 16 16 16C13.7909 16 12 17.7909 12 20C12 22.2091 13.7909 24 16 24Z" fill="#FF5555"/>
</svg>
